# xmcd
#
# Track frame offsets:
#	150
#	21654
#	42326
#	70443
#	88380
#	105501
#	122388
#	136129
#	157587
#	176036
#	194091
#	209823
#	229670
#
# Disc length: 3258 seconds
#
# Revision: 1
# Processed by: cddbd v1.4PL0 Copyright (c) Steve Scherf et al.
# Submitted via: EasyCDDAExtractor 5.0.6
#
DISCID=bc0cb80d
DTITLE=Hayganan yerker - various
DYEAR=2002
DGENRE=armenian pop
TTITLE0=Tchirkhani
TTITLE1=ND de Paris Belle
TTITLE2=Medley
TTITLE3=Ais Pemoum
TTITLE4=Drntez
TTITLE5=Anamassis
TTITLE6=Houcher
TTITLE7=Our Es
TTITLE8=Ari har
TTITLE9=Paits tou tches kalis
TTITLE10=Dzaghgazart
TTITLE11=Erevan
TTITLE12=Tchem guiam khara
EXTD=
EXTT0=
EXTT1=
EXTT2=
EXTT3=
EXTT4=
EXTT5=
EXTT6=
EXTT7=
EXTT8=
EXTT9=
EXTT10=
EXTT11=
EXTT12=
PLAYORDER=
